<?xml version="1.0" encoding="utf-8"?>
<!-- Generator: Adobe Illustrator 25.4.1, SVG Export Plug-In . SVG Version: 6.00 Build 0)  -->
<svg version="1.1" id="Layer_1" xmlns="http://www.w3.org/2000/svg" xmlns:xlink="http://www.w3.org/1999/xlink" x="0px" y="0px"
	 viewBox="0 0 26.2 89.1" style="enable-background:new 0 0 26.2 89.1;" xml:space="preserve">
<style type="text/css">
	.st0{display:none;}
	.st1{display:inline;fill:#6DC6D4;}
	.st2{fill:url(#SVGID_1_);}
	.st3{fill:url(#SVGID_00000172418263226962628730000001727111167479949236_);}
</style>
<g class="st0">
	<path class="st1" d="M26.2,3.3V83l-11.8-6.8c-12.6-7.3-16.9-23.4-9.6-36l2.7-4.8L26.1,3.2L26.2,3.3z"/>
	<path class="st1" d="M26.2,2.8V74l-8-4.6C6.3,62.5,1.8,47.7,7.5,35.4c0.3-0.7,0.7-1.4,1.1-2.1L26.2,2.8z"/>
</g>
<g>
	
		<linearGradient id="SVGID_1_" gradientUnits="userSpaceOnUse" x1="13.4853" y1="3.1499" x2="13.4853" y2="52.8428" gradientTransform="matrix(1 0 0 -1 0 88)">
		<stop  offset="0" style="stop-color:#055880"/>
		<stop  offset="1" style="stop-color:#0478BC"/>
	</linearGradient>
	<path class="st2" d="M26.2,3.3V83l-12.1-6.8c-12.9-7.3-17.3-23.4-9.8-36l2.8-4.8l19-32.2L26.2,3.3z"/>
	
		<linearGradient id="SVGID_00000181785583974214394560000008366822590300573076_" gradientUnits="userSpaceOnUse" x1="15.4389" y1="12.3963" x2="15.4389" y2="56.7232" gradientTransform="matrix(1 0 0 -1 0 88)">
		<stop  offset="0" style="stop-color:#0478BC"/>
		<stop  offset="1" style="stop-color:#055880"/>
	</linearGradient>
	<path style="fill:url(#SVGID_00000181785583974214394560000008366822590300573076_);" d="M26.2,2.8V74l-8.1-4.6
		C5.9,62.5,1.3,47.7,7.1,35.4c0.3-0.7,0.7-1.4,1.1-2.1L26.2,2.8z"/>
</g>
</svg>
