<?xml version="1.0" encoding="utf-8"?>
<!-- Generator: Adobe Illustrator 25.4.1, SVG Export Plug-In . SVG Version: 6.00 Build 0)  -->
<svg version="1.1" id="Layer_1" xmlns="http://www.w3.org/2000/svg" xmlns:xlink="http://www.w3.org/1999/xlink" x="0px" y="0px"
	 viewBox="0 0 26.2 89.1" style="enable-background:new 0 0 26.2 89.1;" xml:space="preserve">
<style type="text/css">
	.st0{display:none;}
	.st1{display:inline;fill:#6DC6D4;}
	.st2{display:inline;fill:url(#SVGID_1_);}
	.st3{display:inline;fill:url(#SVGID_00000040573578024197649370000002752523140007849890_);}
	.st4{fill:url(#SVGID_00000003092303559328862530000009838480537269636507_);}
	.st5{fill:#FFFFFF;}
</style>
<g class="st0">
	<path class="st1" d="M26.2,3.3V83l-11.8-6.8c-12.6-7.3-16.9-23.4-9.6-36l2.7-4.8L26.1,3.2L26.2,3.3z"/>
	<path class="st1" d="M26.2,2.8V74l-8-4.6C6.3,62.5,1.8,47.7,7.5,35.4c0.3-0.7,0.7-1.4,1.1-2.1L26.2,2.8z"/>
</g>
<g class="st0">
	
		<linearGradient id="SVGID_1_" gradientUnits="userSpaceOnUse" x1="13.4203" y1="124.8501" x2="13.4203" y2="75.1572" gradientTransform="matrix(1 0 0 1 0 -40)">
		<stop  offset="0" style="stop-color:#055880"/>
		<stop  offset="1" style="stop-color:#0478BC"/>
	</linearGradient>
	<path class="st2" d="M26.2,3.3V83l-12.1-6.8c-12.9-7.3-17.3-23.4-9.8-36l2.8-4.8l19-32.2L26.2,3.3z"/>
	
		<linearGradient id="SVGID_00000150084302445295853410000008477183018342828212_" gradientUnits="userSpaceOnUse" x1="15.4048" y1="115.6037" x2="15.4048" y2="71.2768" gradientTransform="matrix(1 0 0 1 0 -40)">
		<stop  offset="0" style="stop-color:#0478BC"/>
		<stop  offset="1" style="stop-color:#055880"/>
	</linearGradient>
	<path style="display:inline;fill:url(#SVGID_00000150084302445295853410000008477183018342828212_);" d="M26.2,2.8V74l-8.1-4.6
		c-12.2-6.9-16.8-21.7-11-34c0.3-0.7,0.7-1.4,1.1-2.1L26.2,2.8z"/>
</g>
<g>
	
		<linearGradient id="SVGID_00000145748365421520524220000009935296213514885823_" gradientUnits="userSpaceOnUse" x1="13.4203" y1="6.9593" x2="13.4203" y2="57.3671" gradientTransform="matrix(1 0 0 -1 0 92)">
		<stop  offset="0" style="stop-color:#939599"/>
		<stop  offset="1" style="stop-color:#FFFFFF"/>
	</linearGradient>
	<path style="fill:url(#SVGID_00000145748365421520524220000009935296213514885823_);" d="M26.2,2.3v80.9l-12.1-6.9
		C1.2,68.9-3.2,52.5,4.3,39.7l2.8-4.8l19-32.7L26.2,2.3z"/>
	<path class="st5" d="M26.2,1.8V74L18,69.3c-12.2-7-16.8-22-11-34.4c0.3-0.7,0.7-1.4,1.1-2.1L26.2,1.8z"/>
</g>
</svg>
