<?xml version="1.0" encoding="utf-8"?>
<!-- Generator: Adobe Illustrator 25.4.1, SVG Export Plug-In . SVG Version: 6.00 Build 0)  -->
<svg version="1.1" id="Layer_1" xmlns="http://www.w3.org/2000/svg" xmlns:xlink="http://www.w3.org/1999/xlink" x="0px" y="0px"
	 viewBox="0 0 128 128" style="enable-background:new 0 0 128 128;" xml:space="preserve">
<style type="text/css">
	.st0{fill:#0177BC;}
</style>
<g id="Page-1">
	<g id="_x30_01---Degree">
		<path id="Shape" class="st0" d="M121.42,23.99l-55.98-20c-0.88-0.31-1.85-0.31-2.73,0l-55.97,20c-1.59,0.57-2.64,2.08-2.64,3.76
			s1.06,3.19,2.64,3.76l27.34,9.77v12.47c0,7.78,26.93,8,30,8c3.07,0,30-0.22,30-8V41.29l6-2.13v4.6c0,2.21,1.79,4,4,4h4
			c2.21,0,4-1.79,4-4v-6c-0.01-0.93-0.23-1.84-0.65-2.66l10-3.58c1.59-0.57,2.64-2.08,2.64-3.76s-1.06-3.19-2.64-3.76L121.42,23.99z
			 M90.08,49.36c-7.62-3.47-23.67-3.6-26-3.6c-2.33,0-18.38,0.13-26,3.6V31.93c1.2-1.54,10.63-4.18,26-4.18s24.8,2.64,26,4.18V49.36
			z M64.08,57.76c-14.8,0-24.09-2.44-25.83-4c1.74-1.56,11.04-4,25.83-4s24.09,2.44,25.83,4C88.17,55.31,78.88,57.76,64.08,57.76z
			 M101.02,34.57l-6.94,2.47v-5.28c0-7.78-26.93-8-30-8c-3.07,0-30,0.22-30,8v5.28l-26-9.28l56.03-20l39.97,14.28v10.08
			C102.82,32.57,101.74,33.43,101.02,34.57z M108.08,43.76h-4v-6c0-1.1,0.9-2,2-2s2,0.9,2,2V43.76z M108.08,32.04v-8.57l12,4.29
			L108.08,32.04z"/>
		<path id="Shape_1_" class="st0" d="M118.08,65.76c-0.12,0-0.24,0.01-0.36,0.03c-17.75,2.76-35.68,4.09-53.64,3.97
			c-17.96,0.12-35.9-1.21-53.64-3.97c-0.12-0.02-0.24-0.03-0.36-0.03c-1.4,0-6,1.59-6,22s4.6,22,6,22c0.12,0,0.24-0.01,0.36-0.04
			c13.64-2.16,27.4-3.41,41.2-3.76l-3.9,9.36c-0.6,1.5-0.24,3.21,0.92,4.34s2.88,1.44,4.36,0.8l1.53-0.65l0.66,1.52
			c0.63,1.48,2.08,2.43,3.68,2.43h0.05c1.61-0.01,3.06-1,3.67-2.5l3.47-8.32l3.46,8.28c0.6,1.51,2.05,2.51,3.68,2.53h0.06
			c1.59,0.01,3.03-0.94,3.66-2.4l0.67-1.53l1.51,0.65c1.49,0.66,3.23,0.34,4.39-0.79c1.17-1.13,1.52-2.86,0.91-4.37l-3.83-9.18
			c12.44,0.44,24.85,1.64,37.14,3.6c0.11,0.02,0.23,0.03,0.35,0.03c1.4,0,6-1.59,6-22S119.48,65.76,118.08,65.76L118.08,65.76z
			 M70.48,73.7c0.83,3.05,1.31,6.19,1.44,9.35c-4.53-2.11-9.85-1.61-13.92,1.29c-0.1-3.59-0.56-7.16-1.37-10.66
			c2.42,0.05,4.91,0.08,7.45,0.08C66.27,73.76,68.39,73.73,70.48,73.7z M66.08,105.76c-5.52,0-10-4.48-10-10s4.48-10,10-10
			s10,4.48,10,10C76.07,101.28,71.6,105.75,66.08,105.76z M10.08,70.76c1.53,5.53,2.21,11.26,2,17c0.21,5.74-0.47,11.47-2,17
			c-1.53-5.53-2.21-11.26-2-17C7.87,82.02,8.55,76.29,10.08,70.76z M14.12,105.1c1.09-3.17,1.96-8.48,1.96-17.34
			s-0.87-14.17-1.96-17.34c12.71,1.76,25.51,2.81,38.33,3.17c1.2,4.63,1.75,9.4,1.63,14.18c0,0.29,0,0.57-0.01,0.84
			c-2.4,3.98-2.64,8.9-0.64,13.1l-0.09,0.21C40.21,102.24,27.12,103.3,14.12,105.1L14.12,105.1z M58.89,119.76l-1.46-3.36
			c-0.44-1.01-1.61-1.47-2.62-1.04l-3.37,1.49l4.69-11.24c1.93,1.95,4.38,3.29,7.06,3.86L58.89,119.76z M77.35,115.36
			c-1.01-0.43-2.18,0.03-2.62,1.04l-1.48,3.33l-4.29-10.27c2.68-0.57,5.14-1.91,7.07-3.86l4.68,11.2L77.35,115.36z M117.68,105.66
			c-12.85-1.98-25.81-3.18-38.8-3.6l-0.14-0.34c2.52-5.3,1.44-11.61-2.7-15.77c-0.02-4.15-0.49-8.28-1.43-12.32
			c14.42-0.32,28.81-1.58,43.07-3.76c0.93,1.58,2.4,7.81,2.4,17.9S118.6,104.08,117.68,105.66L117.68,105.66z"/>
	</g>
</g>
</svg>
