<?xml version="1.0" encoding="utf-8"?>
<!-- Generator: Adobe Illustrator 25.4.1, SVG Export Plug-In . SVG Version: 6.00 Build 0)  -->
<svg version="1.1" id="Layer_1" xmlns="http://www.w3.org/2000/svg" xmlns:xlink="http://www.w3.org/1999/xlink" x="0px" y="0px"
	 viewBox="0 0 120 120" style="enable-background:new 0 0 120 120;" xml:space="preserve">
<style type="text/css">
	.st0{fill:#FFFFFF;}
</style>
<g>
	<g>
		<g>
			<path class="st0" d="M115.9,59.2c-4-3.3-10.3-3.6-14.4,0.9l-10.3,11c-1.3-4.3-5.3-7.4-10-7.4H62.9c-1.4,0-1.9-0.5-4.3-2.4
				c-9.2-8-23.1-8-32.2,0.1l-6.7,5.9c-3-1.6-6.6-1.6-9.6-0.1l-7.7,3.9c-1.7,0.9-2.4,3-1.6,4.7l21,41.9c0.9,1.7,3,2.4,4.7,1.6
				l7.7-3.9c3.8-1.9,5.9-5.8,5.8-9.7h41.3c7.7,0,15-3.7,19.6-9.8l16.8-22.4C120.8,69.2,120.3,62.8,115.9,59.2z M31,109.2l-4.6,2.3
				L8.5,75.8l4.6-2.3c1.7-0.9,3.8-0.2,4.7,1.6l14.7,29.4C33.4,106.2,32.7,108.3,31,109.2z M112,69.3L95.2,91.7c-3.3,4.4-8.5,7-14,7
				H37.5L24.4,72.5l6.6-5.8c6.6-5.8,16.5-5.8,23.1,0c3.9,3.4,6.3,4.1,8.8,4.1h18.3c1.9,0,3.5,1.6,3.5,3.5s-1.6,3.5-3.5,3.5H63.4
				c-1.9,0-3.5,1.6-3.5,3.5s1.6,3.5,3.5,3.5h20.2c2.9,0,5.7-1.2,7.7-3.3L106.7,65c1.4-1.5,3.6-1.4,4.9-0.2
				C112.9,65.8,113,67.9,112,69.3z"/>
		</g>
	</g>
	<g>
		<g>
			<path class="st0" d="M73.8,24.2c2.4-2.5,3.9-5.9,3.9-9.6c0-7.7-6.2-14.2-14-14.2c-7.7,0-14.2,6.5-14.2,14.2c0,3.6,1.4,7,4,9.7
				c-6.4,3.6-11,10.5-11,18.5v3.5c0,1.9,1.6,3.5,3.5,3.5h35.2c1.9,0,3.5-1.6,3.5-3.5v-3.5C84.7,34.8,80.3,27.9,73.8,24.2z M63.7,7.3
				c3.8,0,7,3.3,7,7.2s-3.1,7-7,7s-7.2-3.2-7.2-7C56.5,10.7,59.9,7.3,63.7,7.3z M49.5,42.8c0-7.7,6.5-14.2,14.2-14.2s14,6.4,14,14.2
				H49.5z"/>
		</g>
	</g>
</g>
</svg>
