<?xml version="1.0" encoding="utf-8"?>
<!-- Generator: Adobe Illustrator 25.4.1, SVG Export Plug-In . SVG Version: 6.00 Build 0)  -->
<svg version="1.1" xmlns="http://www.w3.org/2000/svg" xmlns:xlink="http://www.w3.org/1999/xlink" x="0px" y="0px"
	 viewBox="0 0 128 128" style="enable-background:new 0 0 128 128;" xml:space="preserve">
<style type="text/css">
	.st0{display:none;}
	.st1{display:inline;fill:#0000C9;}
	.st2{fill:#FFFFFF;}
</style>
<g id="Layer_2" class="st0">
	<rect y="0" class="st1" width="128" height="128"/>
</g>
<g id="Layer_1">
	<g>
		<path class="st2" d="M6.7,31.5l27.3,9.8v12.5c0,7.8,26.9,8,30,8s30-0.2,30-8V41.3l6-2.1v4.6c0,2.2,1.8,4,4,4h4c2.2,0,4-1.8,4-4v-6
			c0-0.9-0.2-1.8-0.7-2.7l10-3.6c1.6-0.6,2.6-2.1,2.6-3.8s-1.1-3.2-2.6-3.8l0,0l-56-20c-0.9-0.3-1.8-0.3-2.7,0l-56,20
			c-1.6,0.6-2.6,2.1-2.6,3.8S5.2,30.9,6.7,31.5z M64.1,57.8c-14.8,0-24.1-2.4-25.8-4c1.7-1.6,11-4,25.8-4c14.8,0,24.1,2.4,25.8,4
			C88.2,55.3,78.9,57.8,64.1,57.8z M90.1,49.4c-7.6-3.5-23.7-3.6-26-3.6s-18.4,0.1-26,3.6V31.9c1.2-1.5,10.6-4.2,26-4.2
			s24.8,2.6,26,4.2V49.4z M108.1,23.5l12,4.3l-12,4.3V23.5z M106.1,35.8c1.1,0,2,0.9,2,2v6h-4v-6C104.1,36.7,105,35.8,106.1,35.8z
			 M64.1,7.8l40,14.3v10.1c-1.3,0.5-2.3,1.3-3.1,2.5L94.1,37v-5.3c0-7.8-26.9-8-30-8s-30,0.2-30,8V37l-26-9.3L64.1,7.8z"/>
		<path class="st2" d="M118.1,65.8c-0.1,0-0.2,0-0.4,0c-17.8,2.8-35.7,4.1-53.6,4c-18,0.1-35.9-1.2-53.6-4c-0.1,0-0.2,0-0.4,0
			c-1.4,0-6,1.6-6,22c0,20.4,4.6,22,6,22c0.1,0,0.2,0,0.4,0c13.6-2.2,27.4-3.4,41.2-3.8l-3.9,9.4c-0.6,1.5-0.2,3.2,0.9,4.3
			c1.2,1.1,2.9,1.4,4.4,0.8l1.5-0.7l0.7,1.5c0.6,1.5,2.1,2.4,3.7,2.4h0c1.6,0,3.1-1,3.7-2.5l3.5-8.3l3.5,8.3
			c0.6,1.5,2.1,2.5,3.7,2.5h0.1c1.6,0,3-0.9,3.7-2.4l0.7-1.5l1.5,0.6c1.5,0.7,3.2,0.3,4.4-0.8c1.2-1.1,1.5-2.9,0.9-4.4l-3.8-9.2
			c12.4,0.4,24.8,1.6,37.1,3.6c0.1,0,0.2,0,0.4,0c1.4,0,6-1.6,6-22C124.1,67.3,119.5,65.8,118.1,65.8z M64.1,73.8
			c2.2,0,4.3,0,6.4-0.1c0.8,3,1.3,6.2,1.4,9.3c-4.5-2.1-9.8-1.6-13.9,1.3c-0.1-3.6-0.6-7.2-1.4-10.7C59,73.7,61.5,73.8,64.1,73.8z
			 M10.1,104.8c-1.5-5.5-2.2-11.3-2-17c-0.2-5.7,0.5-11.5,2-17c1.5,5.5,2.2,11.3,2,17C12.3,93.5,11.6,99.2,10.1,104.8z M14.1,105.1
			c1.1-3.2,2-8.5,2-17.3c0-8.9-0.9-14.2-2-17.3c12.7,1.8,25.5,2.8,38.3,3.2c1.2,4.6,1.8,9.4,1.6,14.2c0,0.3,0,0.6,0,0.8
			c-2.4,4-2.6,8.9-0.6,13.1l-0.1,0.2C40.2,102.2,27.1,103.3,14.1,105.1z M58.9,119.8l-1.5-3.4c-0.4-1-1.6-1.5-2.6-1l-3.4,1.5
			l4.7-11.2c1.9,2,4.4,3.3,7.1,3.9L58.9,119.8z M56.1,95.8c0-5.5,4.5-10,10-10s10,4.5,10,10c0,5.5-4.5,10-10,10
			C60.6,105.8,56.1,101.3,56.1,95.8z M80.7,116.8l-3.4-1.4c-1-0.4-2.2,0-2.6,1l-1.5,3.3L69,109.5c2.7-0.6,5.1-1.9,7.1-3.9
			L80.7,116.8z M117.7,105.7c-12.8-2-25.8-3.2-38.8-3.6l-0.1-0.3c2.5-5.3,1.4-11.6-2.7-15.8c0-4.2-0.5-8.3-1.4-12.3
			c14.4-0.3,28.8-1.6,43.1-3.8c0.9,1.6,2.4,7.8,2.4,17.9C120.1,97.9,118.6,104.1,117.7,105.7z"/>
	</g>
</g>
</svg>
