<?xml version="1.0" encoding="utf-8"?>
<!-- Generator: Adobe Illustrator 25.4.1, SVG Export Plug-In . SVG Version: 6.00 Build 0)  -->
<svg version="1.1" id="Layer_1" xmlns="http://www.w3.org/2000/svg" xmlns:xlink="http://www.w3.org/1999/xlink" x="0px" y="0px"
	 viewBox="0 0 120 120" style="enable-background:new 0 0 120 120;" xml:space="preserve">
<style type="text/css">
	.st0{fill:#FFFFFF;}
</style>
<g id="healthcare-covid19-coronavirus-hand-hearth">
	<path class="st0" d="M72,21.8h-6v-6c0-1.1-0.9-2-2-2h-8c-1.1,0-2,0.9-2,2v6h-6c-1.1,0-2,0.9-2,2v8c0,1.1,0.9,2,2,2h6v6
		c0,1.1,0.9,2,2,2h8c1.1,0,2-0.9,2-2v-6h6c1.1,0,2-0.9,2-2v-8C74,22.7,73.1,21.8,72,21.8z M70,29.8h-6c-1.1,0-2,0.9-2,2v6h-4v-6
		c0-1.1-0.9-2-2-2h-6v-4h6c1.1,0,2-0.9,2-2v-6h4v6c0,1.1,0.9,2,2,2h6V29.8z"/>
	<path class="st0" d="M115.3,32.5c0-0.4,0.1-0.7,0.1-1.1c0-3.8-2.7-7-6.3-7.8c-4.2-0.8-8.3,1.8-9.4,5.9l-8.8,25.2
		c-0.1,0.1-0.3,0.1-0.4,0.2L72.9,65.3c-5.5,3.2-8.9,9.1-8.9,15.5v18.8c-1.1,0-2,0.9-2,2v15.9c0,1.1,0.9,2,2,2h27.9c1.1,0,2-0.9,2-2
		v-15.9c0-1.1-0.9-2-2-2v-4.4c0-1.7,0.7-3.3,2-4.5l13.5-12c1.5-1.3,2.5-3,3-4.9l8.7-32.4c0.2-0.7,0.3-1.4,0.3-2.1
		C119.3,36.6,117.8,33.9,115.3,32.5z M103.4,30.8c0.5-2.1,2.6-3.5,4.7-3.2c1.8,0.4,3.2,2,3.2,3.9l0,0c-3.7,0.1-6.8,2.6-7.8,6.1
		L98,54.8c-0.8-0.4-1.7-0.7-2.7-0.8L103.4,30.8z M89.9,115.5H66v-12h23.9V115.5z M115.2,40.5l-8.7,32.4c-0.3,1.1-0.9,2.1-1.8,2.9
		l-13.5,12c-2.1,1.9-3.3,4.6-3.3,7.5v4.4H68V80.8c0-4.9,2.6-9.5,6.9-12l17.6-10.3c1.9-1.1,4.3-0.5,5.5,1.4l0,0c0.5,0.9,0.7,2,0.4,3
		c-0.3,1-1,1.9-1.9,2.4L85,71.9c-0.9,0.6-1.2,1.8-0.6,2.8c0.6,0.9,1.7,1.2,2.6,0.7l11.4-6.6c1.8-1,3.2-2.8,3.7-4.8s0.3-4.2-0.8-6
		l-0.1-0.2l6.2-19c0.5-2.1,2.6-3.5,4.7-3.2c1.8,0.4,3.2,2,3.2,3.9C115.3,39.8,115.3,40.1,115.2,40.5z"/>
	<path class="st0" d="M56,99.6V80.8c0-6.4-3.4-12.2-8.9-15.5L29.5,55c-0.1-0.1-0.3-0.1-0.4-0.2l-8.7-25.1c-1.1-4.2-5.2-6.8-9.4-6.1
		c-3.7,0.8-6.3,4-6.3,7.8c0,0.4,0,0.7,0.1,1.1c-2.5,1.4-4,4.1-4,6.9c0,0.7,0.1,1.4,0.3,2.1l8.7,32.3c0.5,1.9,1.6,3.6,3,4.9l13.5,12
		c1.3,1.1,2,2.8,2,4.5v4.4c-1.1,0-2,0.9-2,2v15.9c0,1.1,0.9,2,2,2H56c1.1,0,2-0.9,2-2v-15.9C58,100.5,57.1,99.6,56,99.6z M8.6,31.5
		c0-1.9,1.3-3.5,3.1-3.9c2.2-0.3,4.3,1.1,4.8,3.3l8,23.1c-0.9,0.1-1.8,0.4-2.7,0.8l-5.5-17.1C15.5,34.1,12.3,31.6,8.6,31.5L8.6,31.5
		z M28.7,87.7l-13.5-12c-0.9-0.8-1.5-1.8-1.8-2.9L4.8,40.5c-0.1-0.3-0.1-0.7-0.1-1c0-1.9,1.3-3.5,3.1-3.9c2.2-0.3,4.3,1.1,4.8,3.3
		l6.1,18.9L18.6,58c-1.1,1.8-1.3,4-0.8,6c0.5,2.1,1.9,3.8,3.7,4.8L33,75.4c1,0.5,2.2,0.1,2.7-0.8s0.2-2.1-0.7-2.6l-11.4-6.6
		C22.7,64.9,22,64,21.7,63s-0.1-2.1,0.4-3c1.1-1.9,3.5-2.6,5.4-1.5l0,0l17.6,10.3c4.3,2.5,6.9,7.1,6.9,12v18.8H32.1v-4.4
		C32.1,92.3,30.9,89.6,28.7,87.7z M54,115.5H30.1v-12H54V115.5z"/>
	<path class="st0" d="M88.2,6.1c-7.8-7.8-20.4-7.8-28.2,0l0,0l0,0l0,0c-7.8-7.8-20.4-7.8-28.2,0l0,0c-7.8,7.8-7.8,20.4,0,28.2
		l26.8,26.8c0.8,0.8,2,0.8,2.8,0l26.8-26.8C96,26.5,96,13.9,88.2,6.1z M60,56.9L34.6,31.5c-6.2-6.2-6.2-16.3,0-22.6
		c3-3,7-4.7,11.3-4.7c4.2,0,8.3,1.7,11.3,4.7l1.4,1.4c0.8,0.8,2,0.8,2.8,0L62.8,9C69,2.8,79.1,2.8,85.3,9l0,0
		c6.2,6.2,6.2,16.3,0,22.5L60,56.9z"/>
</g>
</svg>
